<mxfile host="app.diagrams.net" modified="2024-01-09T15:54:32.783Z" agent="Mozilla/5.0 (Windows NT 10.0; Win64; x64) AppleWebKit/537.36 (KHTML, like Gecko) Chrome/120.0.0.0 Safari/537.36" version="22.1.17" etag="fZDgN66Y_k7qIl0pC9r3" type="github">
  <diagram name="第 1 页" id="PXfHAhuwPPVOCS7AmbtA">
    <mxGraphModel>
      <root>
        <mxCell id="0" />
        <mxCell id="1" parent="0" />
      </root>
    </mxGraphModel>
  </diagram>
</mxfile>
